/* XPM */
static char * icewm_xpm[] = {
"42 25 74 1",
" 	c #303030",
".	c #8B8B8B",
"+	c #6D6D6D",
"@	c #8F8F8F",
"#	c #F9F9F9",
"$	c #EEEEEE",
"%	c #686868",
"&	c #929292",
"*	c #FAFAFA",
"=	c #FFFFFF",
"-	c #ECECEC",
";	c #636363",
">	c #DCDCDC",
",	c #B7B7B7",
"'	c #949494",
")	c #EAEAEA",
"!	c #5E5E5E",
"~	c #959595",
"{	c #FBFBFB",
"]	c #E8E8E8",
"^	c #595959",
"/	c #B6B6B6",
"(	c #969696",
"_	c #FCFCFC",
":	c #E5E5E5",
"<	c #CCCCCC",
"[	c #B5B5B5",
"}	c #979797",
"|	c #F2F2F2",
"1	c #D5D5D5",
"2	c #FEFEFE",
"3	c #B4B4B4",
"4	c #EDEDED",
"5	c #6A6A6A",
"6	c #E7E7E7",
"7	c #B3B3B3",
"8	c #999999",
"9	c #EBEBEB",
"0	c #646464",
"a	c #E1E1E1",
"b	c #B1B1B1",
"c	c #9A9A9A",
"d	c #7C7C7C",
"e	c #B0B0B0",
"f	c #9B9B9B",
"g	c #A6A6A6",
"h	c #D1D1D1",
"i	c #E6E6E6",
"j	c #6C6C6C",
"k	c #AFAFAF",
"l	c #9D9D9D",
"m	c #A5A5A5",
"n	c #D8D8D8",
"o	c #989898",
"p	c #E9E9E9",
"q	c #6F6F6F",
"r	c #FDFDFD",
"s	c #9E9E9E",
"t	c #727272",
"u	c #E0E0E0",
"v	c #676767",
"w	c #DBDBDB",
"x	c #DFDFDF",
"y	c #EFEFEF",
"z	c #A0A0A0",
"A	c #D6D6D6",
"B	c #D0D0D0",
"C	c #616161",
"D	c #D4D4D4",
"E	c #C0C0C0",
"F	c #CBCBCB",
"G	c #7E7E7E",
"H	c #C8C8C8",
"I	c #DDDDDD",
"                                          ",
"                                          ",
"                                          ",
"                  .+                      ",
"                 @#$%                     ",
"                &*==-;     >,             ",
"               '*====)!   >==,            ",
"              ~{======]^ >====/           ",
"             (_========:<======[          ",
"            }{====|{====1]=====23         ",
"           }{====45}{====16=====27        ",
"          8{====90  }{====1,a====2b       ",
"         c{====9d    }{====:5a====2e      ",
"        f{====9gh     }*====ija====2k     ",
"       l{====9m*n      o{====pqa====rb    ",
"      s{====9g*=n       o{====)tu====23   ",
"      a====)vw==n        l_===r[ x====y0  ",
"       zA:BC  8DE         8uiFG   H]Ik    ",
"                                          ",
"                                          ",
"                                          ",
"                                          ",
"                                          ",
"                                          ",
"                                          "};
